<svg id="filled_outline" height="512" viewBox="0 0 512 512" width="512" xmlns="http://www.w3.org/2000/svg" data-name="filled outline"><path d="m120 256h272v176h-272z" fill="#8760e6"/><path d="m160 296h48v48h-48z" fill="#ffc431"/><g fill="#bed3f7"><circle cx="440" cy="168" r="16"/><circle cx="472" cy="112" r="16"/><circle cx="472" cy="216" r="16"/><circle cx="72" cy="168" r="16"/><circle cx="40" cy="112" r="16"/><circle cx="40" cy="216" r="16"/></g><circle cx="256" cy="176" fill="#ffc431" r="96"/><circle cx="256" cy="176" fill="#ffb401" r="64"/><path d="m235.001 124.06836-6.002-14.832a71.85581 71.85581 0 0 0 -18.00293 10.55957l10.00782 12.48242a55.87285 55.87285 0 0 1 13.99711-8.20999z"/><path d="m256 104v16a56 56 0 1 1 -56 56h-16a72 72 0 1 0 72-72z"/><path d="m392 248h-48v16h40v160h-256v-160h40v-16h-48a8.00039 8.00039 0 0 0 -8 8v176a8.00039 8.00039 0 0 0 8 8h272a8.00039 8.00039 0 0 0 8-8v-176a8.00039 8.00039 0 0 0 -8-8z"/><path d="m208 288h-48a8.00039 8.00039 0 0 0 -8 8v48a8.00039 8.00039 0 0 0 8 8h48a8.00039 8.00039 0 0 0 8-8v-48a8.00039 8.00039 0 0 0 -8-8zm-8 48h-32v-8h16v-16h-16v-8h32z"/><path d="m152 384h32v16h-32z"/><path d="m208 384h32v16h-32z"/><path d="m272 384h32v16h-32z"/><path d="m328 384h32v16h-32z"/><path d="m312 288h16v16h-16z"/><path d="m344 288h24v16h-24z"/><path d="m328 320h40v16h-40z"/><path d="m232 164a20.02229 20.02229 0 0 0 20 20 4 4 0 0 1 0 8h-20v16h8v8h16v-8.40308a20.00055 20.00055 0 0 0 -4-39.59692 4 4 0 0 1 0-8h20v-16h-8v-8h-16v8.40308a20.03307 20.03307 0 0 0 -16 19.59692z"/><path d="m427.31348 120h22.06274a24 24 0 1 0 0-16h-25.37622a8.00235 8.00235 0 0 0 -5.65723 2.34277l-53.65722 53.65723h-5.91655a104.00838 104.00838 0 0 0 -205.538 0h-5.91651l-53.65726-53.65723a8.00235 8.00235 0 0 0 -5.65723-2.34277h-25.37622a24 24 0 1 0 0 16h22.06274l39.99927 40h-30.062a24 24 0 1 0 0 16h38.062l-31.99927 32h-38.06274a24 24 0 1 0 0 16h41.37622a8.00235 8.00235 0 0 0 5.65723-2.34277l42.39892-42.39893a103.99474 103.99474 0 0 0 207.8877 0l42.39892 42.39893a8.00235 8.00235 0 0 0 5.65723 2.34277h41.37622a24 24 0 1 0 0-16h-38.06274l-31.99927-32h38.062a24 24 0 1 0 0-16h-30.062zm44.68652-16a8 8 0 1 1 -8 8 8.00917 8.00917 0 0 1 8-8zm-432 16a8 8 0 1 1 8-8 8.00917 8.00917 0 0 1 -8 8zm0 104a8 8 0 1 1 8-8 8.00917 8.00917 0 0 1 -8 8zm432-16a8 8 0 1 1 -8 8 8.00917 8.00917 0 0 1 8-8zm-400-32a8 8 0 1 1 8-8 8.00917 8.00917 0 0 1 -8 8zm184 88a88 88 0 1 1 88-88 88.09957 88.09957 0 0 1 -88 88zm184-104a8 8 0 1 1 -8 8 8.00917 8.00917 0 0 1 8-8z"/></svg>